<svg xmlns="http://www.w3.org/2000/svg" viewBox="0 0 32 32">
  <defs>
    <linearGradient id="bg" x1="0%" y1="0%" x2="100%" y2="100%">
      <stop offset="0%" style="stop-color:#ef4444"/>
      <stop offset="100%" style="stop-color:#f97316"/>
    </linearGradient>
  </defs>
  <!-- Background circle -->
  <circle cx="16" cy="16" r="15" fill="url(#bg)"/>
  <!-- Bug icon - stylized B that looks like a bug -->
  <path d="M10 8h8c2.2 0 4 1.8 4 4v0c0 1.5-.8 2.8-2 3.5c1.2.7 2 2 2 3.5v0c0 2.2-1.8 4-4 4h-8v-15z M13 11v3h5c.6 0 1-.4 1-1v-1c0-.6-.4-1-1-1h-5z M13 17v3h5c.6 0 1-.4 1-1v-1c0-.6-.4-1-1-1h-5z" fill="white"/>
  <!-- Bug antennae -->
  <circle cx="11" cy="6" r="1.5" fill="white"/>
  <circle cx="17" cy="5" r="1.5" fill="white"/>
  <line x1="11" y1="6" x2="12" y2="9" stroke="white" stroke-width="1.5" stroke-linecap="round"/>
  <line x1="17" y1="5" x2="15" y2="9" stroke="white" stroke-width="1.5" stroke-linecap="round"/>
</svg>
